<svg transform="scale(2)" version="1.1" id="d1orN1dWBQ" xmlns="http://www.w3.org/2000/svg" xmlns:xlink="http://www.w3.org/1999/xlink" x="0px" y="0px" viewBox="0 0 500 500" xml:space="preserve" class="pbimage_pbimage__wrapper__image__0LEis false"><title>Recycling 4</title><style type="text/css"> .st0{fill:#F3AD00;} .st1{fill:#BC532A;} .st2{fill:#2C9135;} .st3{opacity:0.42;fill:#4D4D4D;enable-background:new;} .st4{opacity:0.32;fill:url(#SVGID_1_-d1orN1dWBQ);enable-background:new;} .st5{fill:#06577A;} .st6{fill:#68E1FD;} .st7{fill:#8CCC00;} .st8{fill:#FFFFFF;} .st9{opacity:0.46;fill:url(#SVGID_00000156584882526281668090000008584178384000811406_-d1orN1dWBQ);enable-background:new;} .st10{fill:#FFD93B;} .st11{fill:#4D4D4D;} .st12{fill:#FFCFB3;} .st13{opacity:0.2;fill:#4D4D4D;enable-background:new;}
 .st13{fill:#4D4D4D;}
 .st12{fill:#FFCFB3;}
 .st11{fill:#4D4D4D;}
 .st10{fill:#FFD93B;}
 .st8{fill:#FFFFFF;}
 .st7{fill:#8CCC00;}
 .st6{fill:#68E1FD;}
 .st5{fill:#06577A;}
 .st3{fill:#4D4D4D;}
 .st2{fill:#2C9135;}
 .st1{fill:#BC532A;}
 .st0{fill:#F3AD00;}</style><path class="st0" id="field" d="M256.8,401.5l215.1-127.1c6.9-3.9,12.7-10.2,6-14.3L262.1,135.7c-3.2-2-8.2-3.3-11.4-1.4l-225.8,131
	c-6.9,4-8.1,15.1-1.2,19.1l204.8,116.9C237.2,406.4,248,406.5,256.8,401.5z"></path><g id="trees"><path class="st1" d="M268.9,127.8h1.7c1,0,1.9,0.8,1.9,1.9v32.1c0,1-0.8,1.9-1.9,1.9h-1.7c-1,0-1.9-0.8-1.9-1.9v-32.1
		C267,128.7,267.8,127.8,268.9,127.8z" fill="#BC532A"></path><path class="st2" d="M283,135.2c-1.2-5.4-6.8-29.2-16.6-22.2c-5,3.6-6.4,9.2-8.5,14.7c-1.8,4.5-2.9,9.3-3.1,14.2
		c-0.1,9.9,9.9,11.1,17.6,11.1c4.4,0,10.8-2.6,11.8-7.5c0.6-2.9-0.4-6.4-1.1-9.2C283.2,135.9,283.1,135.5,283,135.2z" fill="#2C9135"></path><path class="st3" d="M283.5,136.2l-0.2-1.1c-1.1-4.8-5.6-24-13.4-23.5c2.3,10.1,5.7,20.8,3.9,31.1c-0.6,3.6-2,7-4.1,10
		c1,0,2.1,0.1,3,0.1c4.5,0,10.8-2.6,11.8-7.5C285.2,142.5,284.1,139.1,283.5,136.2z" fill="#4D4D4D"></path><path class="st1" d="M400.8,212.6h6.5c1,0,1.9,0.8,1.9,1.9v63.9c0,1-0.8,1.9-1.9,1.9h-6.5c-1,0-1.9-0.8-1.9-1.9v-63.9
		C399,213.4,399.8,212.6,400.8,212.6z" fill="#BC532A"></path><path class="st2" d="M429.3,226.4c-2.4-10.2-12.8-55.2-31.3-42c-9.5,6.8-12.2,17.4-16,27.7c-3.1,8.6-5.8,17.6-5.9,26.8
		c-0.3,18.7,18.7,21,33.3,20.9c8.4,0,20.4-5,22.4-14.1c1.2-5.5-0.8-12-2-17.4L429.3,226.4z" fill="#2C9135"></path><path class="st3" d="M430.1,228.4c-0.1-0.7-0.3-1.3-0.5-2c-2.1-9-10.5-45.2-25.2-44.4c4.4,19.1,10.8,39.3,7.4,58.8
		c-1.1,6.8-3.8,13.3-7.8,18.9c2,0.1,3.9,0.1,5.8,0.1c8.4,0,20.4-5,22.3-14.1C433.3,240.3,431.3,233.8,430.1,228.4z" fill="#4D4D4D"></path></g><g id="recycle"><linearGradient id="SVGID_1_-d1orN1dWBQ" gradientUnits="userSpaceOnUse" x1="224.9668" y1="151.2225" x2="245.6367" y2="178.3525" gradientTransform="matrix(1 0 0 -1 0 502)"><stop offset="0" style="stop-color: rgb(6, 87, 122); stop-opacity: 0.03;"></stop><stop offset="0.97" style="stop-color: rgb(77, 77, 77);"></stop></linearGradient><path class="st4" d="M249.2,318.5c-7.6-5.2-16.8-8.3-23.5-14.7l-46.1,25l63.7,36.8l55.2-29.8C295.5,333.3,252.3,320.6,249.2,318.5z
		"></path><polygon class="st5" points="330.8,244 267.8,205.5 203.1,244 267.8,280.2 	"></polygon><polygon class="st6" points="203.1,244 179.7,203.4 246,164.4 267.8,205.5 	"></polygon><path class="st7" d="M257.6,210.6c0,0,14.5-20.2,8.2-34.1c0,0-5.2-9-12.6-10.4c0,0,0.7,19.1-6.7,16.7s0-20,0-20s-7.8-10.1-16.3-9.8
		s0,17.9-5.9,15s-0.4-17.9-7-19.6s-18.5-2.8-18.5-2.8s-6.3,17.4,0,19.9s15.6,3.3,11.1,7.2s-17-0.6-17-0.6s-0.8,9.8,3.5,14.1
		s29.4-5.1,25,3.3s-21.1,4.2-21.1,4.2s8.5,11.7,18.5,17S257.6,210.6,257.6,210.6z"></path><path class="st5" d="M204.3,153.2c2.7,2.2,5.4,4.4,8.1,6.7c-0.3-2.8-0.6-5.6-1.1-8.3c-0.2-1.5,2.1-2.1,2.3-0.6
		c0.6,3.7,1.1,7.4,1.4,11.1c7.1,6,14.2,12.3,20.8,19c0.6-4.7,0.7-9.4,0.4-14.2c-0.1-1.5,2.3-1.5,2.4,0c0.3,5.5,0.1,10.9-0.7,16.4
		c4.2,4.4,8.2,9,11.9,13.8c4.1-5.5,6.9-11.8,8.2-18.5c0.3-1.5,2.6-0.8,2.3,0.6c-1.4,7.1-4.4,13.9-8.9,19.6c-0.1,0.1-0.2,0.2-0.2,0.2
		c10.6,14.4,17.9,30.6,18.5,49.4c0,1.5-2.4,1.5-2.4,0c-0.6-18.1-7.6-33.7-17.7-47.7c-9.7,2.5-19.8,3.4-29.8,2.8
		c-1.5-0.1-1.6-2.4,0-2.3c9.5,0.6,19.1-0.3,28.4-2.5c-5.1-6.6-10.7-12.9-16.8-18.7c-0.1,0-0.1,0-0.2,0.1c-5.6,0.5-11.2,1-16.9,1.1
		c-3.7,0.1-7.1,0.4-10.5-1.2c-1.4-0.7-0.2-2.7,1.2-2c3.9,1.9,9.3,0.9,13.5,0.7c3.6-0.2,7.1-0.5,10.7-0.8c-8.6-8.2-17.8-15.8-26.7-23
		C201.4,153.9,203.1,152.3,204.3,153.2z"></path><path class="st7" d="M299.3,231.1c0,0,25.5,0.9,34.3-11.7c0,0,5-9.1,2.3-15.8c0,0-16.4,10.9-18.2,3.6s17.5-10.8,17.5-10.8
		s4.7-11.7-0.1-18.5s-15.7,9.6-16.3,3.2s15.5-9.9,13.4-16.2s-7.4-16.5-7.4-16.5s-18.7,4.3-17.5,10.7s5.4,14.4-0.3,12.9
		s-8.6-14.1-8.6-14.1s-9,4.6-10.5,10.4s20.3,21.1,10.5,22.1s-15-14.9-15-14.9s-5.7,13.2-5,24.2S299.3,231.1,299.3,231.1z"></path><path class="st5" d="M285.4,189.9c-0.5-1.4,1.9-2,2.3-0.6c2.7,8.6,8.1,16.1,15.5,21.4c2.7-7.3,5.2-14.7,7.5-22.1
		c-5.8-5.5-10.6-12-14.1-19.2c-0.7-1.3,1.4-2.5,2.1-1.2c3.3,6.6,7.6,12.6,12.8,17.8c2.5-8.5,4.7-17.1,6.6-25.8
		c0.3-1.5,2.6-0.9,2.3,0.6c-2.6,11.9-5.7,23.6-9.5,35.2c4.5-0.8,8.9-2.2,13.1-4.1c1.4-0.6,2.6,1.4,1.2,2c-4.8,2.2-10,3.8-15.2,4.7
		l0,0c-2.5,7.6-5.4,15.1-8.4,22.6c7.2-0.2,14.3-1.7,21-4.4c1.4-0.6,2.6,1.4,1.2,2c-7.3,3-15.2,4.6-23.1,4.8
		c-3.9,9.3-8.1,18.4-12.8,27.4c-0.7,1.3-2.8,0.2-2.1-1.2c6.2-11.9,11.7-24.2,16.5-36.8l0,0C294.3,207.3,288.3,199.2,285.4,189.9z"></path><path class="st7" d="M254.2,261.1c0,0,10.5-10,8.4-18.5c0,0-2-5.6-6-7.2c0,0-1.7,10.9-5.6,8.8s2.2-11.4,2.2-11.4s-3.3-6.5-8.2-7.2
		s-2,10.2-5,7.9s1.8-10.2-1.8-11.9c-3.3-1.4-6.7-2.6-10.2-3.5c0,0-5.5,9.3-2.2,11.3s8.4,3.5,5.5,5.2s-9.6-2.1-9.6-2.1
		s-1.5,5.5,0.4,8.3s17.3,0.1,13.8,4.4s-12.4,0.2-12.4,0.2s3.5,7.5,8.6,11.6C237.2,261.2,254.2,261.1,254.2,261.1z"></path><path class="st5" d="M235.3,228.3c2.2,3.6,4.4,7.1,6.6,10.7c0.8-1,1.5-2.2,2.1-3.3c0.7-1.3,2.8-0.2,2.1,1.2
		c-0.8,1.5-1.7,2.9-2.8,4.2c0,0-0.1,0.1-0.1,0.1c2.4,3.9,4.8,7.7,7.2,11.6c0.8-0.7,1.3-1.7,1.5-2.8c0.2-1.5,2.6-1.5,2.4,0
		c-0.2,1.9-1.2,3.6-2.6,4.8l9,14.5c0.8,1.3-1.3,2.5-2.1,1.2l-11.9-19.1c-2,0-4-0.3-5.9-0.9c-0.6-0.2-1-0.8-0.8-1.4s0.8-1,1.4-0.8
		l0,0c1.2,0.4,2.5,0.6,3.7,0.7l-12-19.4C232.4,228.2,234.5,227,235.3,228.3z"></path><path class="st6" d="M267.8,352.5v-72.3L203.1,244v71.7L267.8,352.5z"></path><path class="st6" d="M267.8,280.2l63-36.2c0,0,1.8,72.9,0,74.1s-63,34.4-63,34.4V280.2z"></path><path class="st3" d="M267.8,280.2l63-36.2c0,0,1.8,72.9,0,74.1s-63,34.4-63,34.4V280.2z"></path><polygon class="st6" points="330.8,244 347.8,207.6 278.2,245.5 267.8,280.2 	"></polygon><path class="st8" d="M241.2,308.9c0.1,1.4,0.2,2.7,0.2,4.1c0.1,0.1,0.3,0.1,0.4,0.2l2.5,1.1c2.1,0.9,4.1,1.9,6.2,2.8
		c1.5,0.8,3.2,1.1,4.8,0.9c0.6-0.2,1.1-0.3,1.7-0.5l-0.1,0.2c-1.9,3.3-3.8,6.6-5.7,9.8c-1,1.7-2.6,2-4.7,1c-0.6-0.2-1.1-0.5-1.7-0.8
		l-2.7-1.2l-0.5-0.2c0,1.4-0.1,2.7-0.1,4.2c-0.1-0.3-0.2-0.4-0.3-0.6c-1.6-4.1-3.3-8.1-4.9-12.2c-0.1-0.3-0.2-0.5-0.1-0.7
		c1.6-2.6,3.2-5.3,4.8-7.9C241,309,241.1,309,241.2,308.9z"></path><path class="st8" d="M227,271.9l0.4,0.2c1.7,1.1,3,2.5,4,4.3c1.2,1.9,2.2,4,3,6.1c0.1,0.2,0.1,0.3,0,0.5c-1.7,2.4-3.3,4.8-5,7.2
		l-0.1,0.1c-3.4-3.8-6.7-7.5-10.1-11.3l0.2-0.3c1.6-2.1,3.1-4.2,4.7-6.3C224.8,271.4,225.8,271.3,227,271.9z"></path><path class="st8" d="M222.1,286.4c0.3,0.1,0.4,0.3,0.5,0.5c1.7,4.3,3.4,8.6,5.2,12.9c0,0.1,0.1,0.2,0.2,0.5l-3-3.2l-0.9,1.2
		c-1,1.4-1.9,2.8-2.9,4.2c-0.1,0.2-0.3,0.3-0.6,0.1c-1.5-0.7-3-1.5-4.4-2.4c-2-1.5-3.5-3.4-4.3-5.7c-0.6-1.2-0.6-2.6,0-3.8
		c0.9-1.5,1.8-3.1,2.6-4.7c0.1-0.1,0.1-0.2,0.1-0.3l-3.1-4.1l0.3,0.1L222.1,286.4z"></path><path class="st8" d="M212.4,297.1c1.3,2,3,3.7,5,4.9c0.6,0.3,1.2,0.6,1.9,0.9l0.6,0.2l1,0.5l11.3,5.2c0.1,0,0.2,0.1,0.3,0.2
		l0.2,13.3l-0.9-0.4l-4-1.8l-3-1.4c-1.6-0.7-3-1.7-4.2-2.9c-0.7-0.7-1.3-1.6-1.7-2.5c-2.1-5.3-4.2-10.6-6.4-15.9L212.4,297.1z"></path><path class="st8" d="M241.2,277.8c2.2,1.1,4,3,4.8,5.4c0.9,2,1.6,4.1,2.5,6.2l3.2-0.4l0.1,0.1l-0.3,0.5c-1.6,2.4-3.2,4.8-4.9,7.2
		c-0.1,0.2-0.3,0.2-0.6,0.1l-9.8-4.5l-0.5-0.2l2.9-0.8c-0.1-0.2-0.2-0.5-0.3-0.7c-1.4-3.5-2.8-7-4.2-10.5c-0.8-2.1-2-4.1-3.4-5.8
		c-0.5-0.5-1-1-1.4-1.5c-0.1-0.1-0.3-0.3-0.4-0.4v-0.1l2.8,1.3l2.8,1.3C236.7,275.8,238.9,276.8,241.2,277.8z"></path><path class="st8" d="M253.1,300.4l1.7,4.4c0.9,2.3,1.8,4.6,2.7,7c0.6,1.3,0.6,2.8-0.2,4.1c-0.7,0.9-1.8,1.3-2.9,1.2
		c-1.7-0.1-3.4-0.5-5-1.2l-0.9-0.4c-0.2-0.1-0.4-0.3-0.4-0.5c-1.6-3.9-3.2-7.9-4.8-11.8c0-0.1-0.1-0.2-0.1-0.3L253.1,300.4z"></path></g><g id="person"><linearGradient id="SVGID_00000089559653241752106850000016349190282797201853_-d1orN1dWBQ" gradientUnits="userSpaceOnUse" x1="129.5306" y1="237.2868" x2="104.0306" y2="202.4968" gradientTransform="matrix(1 0 0 -1 0 502)"><stop offset="4.000000e-02" style="stop-color: rgb(77, 77, 77);"></stop><stop offset="1" style="stop-color: rgb(255, 255, 255); stop-opacity: 0;"></stop></linearGradient><path d="
		M87.3,290c4.5,3.4,8.8,7.1,13.2,10.7s17.1,13.8,21.5,17.1c1.5-0.8,3.6-3,5-4c8.4-5.4,12.2-13,20.2-19c-8.4-9.2-26.2-34.6-32-39.1
		c-8.2,7.4-28.6,19.1-38.7,27C80.1,285.2,83.9,287.4,87.3,290z" style="opacity: 0.46; fill: url(&quot;#SVGID_00000089559653241752106850000016349190282797201853_-d1orN1dWBQ&quot;);"></path><path class="st8" d="M140.2,148.7c-2.3-1.3-4.4-2.8-6.4-4.5c-2.2,3.7-0.6,10.2,0,14.5c0.4-0.3,2.2,0.4,2.6,0.3s1-0.4,1.5-0.6
		c0.7-0.2,1.4-0.5,2.1-0.8c1.5-0.6,3-1.5,4.3-2.5c0.2-0.1,0.3-0.3,0.4-0.4c0.1-0.2,0.1-0.5,0-0.7c-0.2-1.1-0.3-2.3-0.2-3.4
		c0-0.3,0-0.5-0.1-0.8c-0.3-0.6-1.4-0.4-2-0.5C141.6,149.2,140.9,149,140.2,148.7z"></path><path class="st1" d="M132.2,110.4c1.1,2.5,1.6,5.1,3.1,7.4c2.9,4.2,8.4,11.5,5.4,16.9c-1.2,2.2-3.7,2.6-6,3l-8.6-20"></path><path class="st10" d="M129.4,210.9c0.1-0.1,0.1-0.2,0.2-0.2c5.5-12.2,6.2-26.6,6-39.8c-1.2,0.3-8.1-4.1-8.6-2.9
		c-0.6,1.6-2.3,5.1-3.7,6s5.8,11.3,4.9,12.7c-1.2,1.8-1.7,4.4-2.4,6.5c-0.6,1.8-1.3,3.6-1.9,5.3c-1,2.8-2,5.6-3,8.4s-2.8,8.5-0.4,11
		c0.7,0.7,1.5,1.2,2.5,1.3c0.5,0.1,1,0.1,1.4-0.2c0.3-0.2,0.5-0.5,0.7-0.9C126.5,215.7,127.9,213.3,129.4,210.9z"></path><path class="st11" d="M126,271.2c1.3-0.2,2.6-0.7,3.7-1.5c2.6-2.1,1.9-4.6,0.4-6.8c-1.2-0.6-2.3-1.3-3.4-2.1
		c-5.5-4.4-9.2-13.2-9.2-13.2l-9.8-2l-1.6,15.2l4.1,1.5l0.9-4.6l2,6.8C113.1,264.6,121.5,269.6,126,271.2z"></path><path class="st11" d="M142,298.5c1.3-0.2,2.6-0.7,3.6-1.5c2.6-2,1.9-4.5,0.4-6.6c-1.2-0.6-2.3-1.2-3.3-2c-5.4-4.3-9-12.9-9-12.9
		l-9.6-2l-1.5,14.9l4,1.5l0.9-4.5l2,6.7C129.4,291.9,137.6,296.9,142,298.5z"></path><path class="st10" d="M122.4,230.7c-0.2-1.2-0.5-2.4-0.9-3.5c-2-5.7-3.7-11.6-5.2-17.4l-0.1,0.1c-5.8,11.4-7.7,23.9-9.6,36.4
		c2.3,1.1,4.6,2.1,7,2.8c1.6,0.6,3.2,1,4.9,1.4c0.2-0.6,0.4-1.3,0.7-1.9c0.7-2.3,1.2-4.7,1.7-7s1-4.8,1.3-7.3
		C122.4,233.2,122.5,232,122.4,230.7z"></path><path class="st3" d="M129.4,210.9c0.1-0.1,0.1-0.2,0.2-0.2c5.5-12.2,6.2-26.6,6-39.8c-1.2,0.3-8.1-4.1-8.6-2.9
		c-0.6,1.6-2.3,5.1-3.7,6s5.8,11.3,4.9,12.7c-1.2,1.8-1.7,4.4-2.4,6.5c-0.6,1.8-1.3,3.6-1.9,5.3c-1,2.8-2,5.6-3,8.4s-2.8,8.5-0.4,11
		c0.7,0.7,1.5,1.2,2.5,1.3c0.5,0.1,1,0.1,1.4-0.2c0.3-0.2,0.5-0.5,0.7-0.9C126.5,215.7,127.9,213.3,129.4,210.9z"></path><path class="st3" d="M122.4,230.7c-0.2-1.2-0.5-2.4-0.9-3.5c-2-5.7-3.7-11.6-5.2-17.4l-0.1,0.1c-5.8,11.4-7.7,23.9-9.6,36.4
		c2.3,1.1,4.6,2.1,7,2.8c1.6,0.6,3.2,1,4.9,1.4c0.2-0.6,0.4-1.3,0.7-1.9c0.7-2.3,1.2-4.7,1.7-7s1-4.8,1.3-7.3
		C122.4,233.2,122.5,232,122.4,230.7z"></path><path class="st10" d="M132.2,174.9c-0.7,1.4-4.2-3.1-5.7-2.9c-5.2,0.6-8.6,2.2-12.9-0.9c-0.8-0.6-2.9-1-3.5-1.7
		c-5.6,15.1-4.2,39.2,3.2,53.1c1.4,2.7,2.5,5.6,3.2,8.5c2.3,9.6,1.6,19.9,3.1,29.6c0.9,5.7,2.5,11.3,3.6,17
		c3.7,0.4,9.1-0.6,10.5-3.6c-0.1-0.2-0.1-0.4-0.2-0.6c-0.5-1.4-1-2.7-1.2-4.2c-1.2-4.8-1.2-30.1-0.8-36.2c0.4-5.6-1.3-11.1-2.4-16.5
		c-1.6-7.7-2.9-15.8-1.5-23.6"></path><path class="st6" d="M135.2,159.6c-0.2-2.8-0.3-5.6-0.2-8.5c0.3-6.1,0.9-12.3,1.1-18.4c0.2-1.7,0.1-3.4-0.3-5.1
		c-0.9-2.9-3.5-3.6-5.8-5.1c-1.4-1-2.3-0.9-4-0.6c-1.9,0.3-3.8,0.7-5.7,1.2c-3.7,1-7.3,2.5-10.7,4.4c-1.6,0.8-3.1,1.9-4.3,3.2
		c-1.1,1.2-1.8,2.7-2,4.3c0.2,0.4,0.4,0.8,0.5,1.2c3.3,10.2,10,25.7,4.8,36.6c0.3,0.3,0.6,0.6,0.9,0.9c1.6,1.5,3.5,2.6,5.5,3.3
		c0.4,0.2,0.9,0.3,1.3,0.4c2.5,0.7,5.1,1,7.7,0.9c2.7,0,5.5-0.4,7.8-1.9c0.8-0.6,1.5-1.2,2.1-1.9l0.4-0.5c0.5-0.5,0.8-1.1,1.1-1.7
		c0.4-1.2,0.5-2.4,0.3-3.6C135.7,165.6,135.4,162.6,135.2,159.6z"></path><path class="st12" d="M115.5,125.5v0.2c0.1,1.2,0.5,2.4,1.2,3.4c0.6,0.8,1.4,1.4,2.3,1.8c0.5,0.2,1,0.4,1.6,0.6
		c0.3,0.1,0.6,0.2,0.9,0.2c0.4,0.1,0.8,0.2,1.3,0.2c0.3,0,0.7,0,1,0.1c0.3,0.2,0.5,0.4,0.7,0.6c0,0.1,0.1,0.1,0.1,0.2
		c1,1.2,1.9,2.4,2.8,3.8c0.4,0.7,0.8,1.3,1.2,2c0.2,0.4,0.4,0.7,0.5,1c0.1,0.2,0.2,0.3,0.2,0.5c0.1,0.1,0.1,0.2,0.1,0.3
		c0,0.1,0.1,0.2,0.1,0.2c0-0.2,0-0.5,0.1-0.7s0-0.3,0-0.4c0-0.4,0.1-0.7,0.1-1.1c0.1-0.8,0.2-1.6,0.3-2.4c0.2-1.7,0.2-3.5,0-5.2
		c-0.2-1.8-0.6-3.7-1.1-5.5c-0.2-0.8-0.4-1.7-0.6-2.5c-0.1-0.6,0-1.4-0.5-1.8s-1.7-16.5-2.6-10.2c-0.3,2.1-2.7,7.5-4.3,6.2
		c-1.2-0.9-2.3-2-3.3-3.2c-0.4,1.4-0.6,2.9-0.7,4.4c0,1.3-0.3,2.5-1.1,3.6C115.4,123.1,115.2,124.3,115.5,125.5z"></path><path class="st13" d="M115.5,125.5v0.2c0.1,1.2,0.5,2.4,1.2,3.4c0.6,0.8,1.4,1.4,2.3,1.8c0.5,0.2,1,0.4,1.6,0.6
		c0.3,0.1,0.6,0.2,0.9,0.2c0.4,0.1,0.8,0.2,1.3,0.2c0.3,0,0.7,0,1,0.1c0.3,0.2,0.5,0.4,0.7,0.6c0,0.1,0.1,0.1,0.1,0.2
		c1,1.2,1.9,2.4,2.8,3.8c0.4,0.7,0.8,1.3,1.2,2c0.2,0.4,0.4,0.7,0.5,1c0.1,0.2,0.2,0.3,0.2,0.5c0.1,0.1,0.1,0.2,0.1,0.3
		c0,0.1,0.1,0.2,0.1,0.2c0-0.2,0-0.5,0.1-0.7s0-0.3,0-0.4c0-0.4,0.1-0.7,0.1-1.1c0.1-0.8,0.2-1.6,0.3-2.4c0.2-1.7,0.2-3.5,0-5.2
		c-0.2-1.8-0.6-3.7-1.1-5.5c-0.2-0.8-0.4-1.7-0.6-2.5c-0.1-0.6,0-1.4-0.5-1.8s-1.7-16.5-2.6-10.2c-0.3,2.1-2.7,7.5-4.3,6.2
		c-1.2-0.9-2.3-2-3.3-3.2c-0.4,1.4-0.6,2.9-0.7,4.4c0,1.3-0.3,2.5-1.1,3.6C115.4,123.1,115.2,124.3,115.5,125.5z"></path><path class="st12" d="M131.2,102.4c0.5,1.4,3.1,16.1-2.7,17.2s-11.8-4.5-11.8-4.5c-2.1-2.8-1.7-6.7,0.9-9
		C122.1,101.6,131.2,102.4,131.2,102.4z"></path><path class="st12" d="M141,149.9c0.6-0.6,1.2-1.1,2-1.5c0.5-0.2,0.9-0.5,1.4-0.7c0.6-0.3,1.1-0.5,1.8-0.7c0.6-0.2,1.3-0.2,1.9,0.2
		c0.4,0.4,0.7,0.9,0.7,1.4c0,0.6,0,1.1,0,1.7c0,1.3,0.3,2.5,0.7,3.7c0.2,0.7,0.1,1.4-0.1,2c-0.3,0.5-0.7,0.9-1.2,1.1
		c-0.2,0.1-0.5,0.2-0.7,0.2c-0.3,0.1-0.6,0.1-0.9,0.1c-1.6,0.3-3.2,0.1-4.7-0.6c-1-0.5-1.4-1.6-1.2-2.7c0-0.1,0-0.2,0-0.3
		c0-0.1-0.1-0.2-0.1-0.2C139.8,152.6,140,151,141,149.9z"></path><path class="st12" d="M115.5,125.5v0.2c0.4,0.6,0.8,1.3,1.2,1.8c1.2,1.4,2.5,2.8,3.9,3.9c0.3,0.1,0.6,0.2,0.9,0.2
		c0.4,0.1,0.8,0.2,1.3,0.2c0.3,0,0.7,0,1,0.1c0.3,0.2,0.5,0.4,0.7,0.6c0,0.1,0.1,0.1,0.1,0.2c1,1.2,1.9,2.4,2.8,3.8
		c0.4,0.7,0.8,1.3,1.2,2c0.2,0.4,0.4,0.7,0.5,1c0.1,0.2,0.2,0.3,0.2,0.5c0.1,0.1,0.1,0.2,0.1,0.3c0,0.1,0.1,0.2,0.1,0.2
		c0-0.2,0-0.5,0.1-0.7c-0.3-2.4-1.1-4.8-2.2-7c-1.5-3-3.5-5.8-5.1-8.7c-0.7-1.2-1.2-2.6-1.2-4.1c0.1-1,0.1-2,0-3
		c-1.2-0.9-2.3-2-3.3-3.2c-0.4,1.4-0.6,2.9-0.7,4.4c0,1.3-0.3,2.5-1.1,3.6C115.5,123,115.2,124.3,115.5,125.5z"></path><path class="st8" d="M132.2,130.5c0.6-0.7,1.5-0.9,2.4-0.6c-0.2-1.8-0.8-3.6-1.8-5.2c-0.3-0.6-0.8-1.1-1.2-1.6
		c-1.2-0.9-2.4-1.6-3.6-2.3c-0.1-0.1-0.3-0.2-0.5-0.2c0.6,1.3,0.9,2.7,1.1,4.2c0.2,1.4,0.3,2.9,0.4,4.3c0.1,1.1,0.2,2.3,0.2,3.4
		c0.1,1,0,2,0.1,3c0.1,1.8,0.3,3.6,0.5,5.4c0-1.1,0.2-2.3,0.5-3.4c0.2-1.4,0.4-2.8,0.8-4.2c0.2-1,0.5-1.9,1.1-2.6L132.2,130.5z"></path><path class="st8" d="M122.8,134.2c-0.6,0.6-1.2,1.2-1.7,1.8c-1.5-1.9-3-3.8-4.4-5.8c-1.2-1.5-2.1-3.3-2.5-5.2
		c-0.2-1.2-0.1-2.3,0.4-3.4c0.2-0.6,0.5-1.1,0.8-1.6c0.3-0.5,0.6-0.9,1-1.2c0.2-0.2,0.5-0.2,0.8-0.2c-0.1,0.6-0.2,1.3-0.3,1.9
		c-0.1,0.5-0.2,1-0.2,1.5c0.2,1,0.7,1.9,1.3,2.6c1.9,2.3,4,4.4,6,6.7c1.2,1.4,2.3,2.9,3.3,4.4c1,1.7,1.7,3.4,2.3,5.2
		c-0.6-1.1-1.3-2.2-2-3.3c-0.5-0.9-1.2-1.7-1.9-2.4c-0.4-0.5-0.9-0.9-1.5-1.2C123.6,133.6,123.4,133.7,122.8,134.2z"></path><path class="st12" d="M95.8,193.6c0,1.3,0.2,2.7,0.8,3.9c0.2,0.8,0.6,1.5,1.2,2.1c0.2,0.1,0.3,0.2,0.4,0.4c0.2,0.2,0.3,0.4,0.4,0.7
		c0.3,0.6,0.6,1.1,1.1,1.6c0.5,0.8,1.4,1.2,2.3,1.1h0.1c0.1,0,0.1,0,0.1-0.1c0-0.1,0.1-0.1,0.1-0.2c0.1-0.4,0-0.8-0.3-1.1
		c-0.3-0.3-0.5-0.6-0.6-1c-0.2-0.5-0.2-0.9-0.1-1.4c0-0.6,0.1-1.1,0.2-1.7c0.1-0.3,0.1-0.6,0.2-0.9c0.1-0.2,0.2-0.4,0.3-0.5
		s0.2-0.3,0.3-0.2s0.2,0.3,0.2,0.5s0,0.4,0,0.6c0,0.5,0,1,0.1,1.5c0.1,0.8,0.4,1.6,0.9,2.3c0.1,0.1,0.1,0.2,0.2,0.2
		c0.2,0.1,0.5,0,0.7-0.1c0.2-0.2,0.3-0.4,0.3-0.7c0.1-0.7,0.1-1.4,0-2.1c-0.2-1.3-0.3-2.7-0.5-4c-0.2-1.3-0.5-2.6-1-3.8
		c0-0.1-0.1-0.2-0.1-0.3c-0.3-0.6-0.5-1.2-0.8-1.8c-0.2-0.5-0.2-1.1-0.3-1.6c0,0.2-0.8,0.4-0.9,0.4c-0.6,0-1.1-0.1-1.7-0.2
		c-0.7-0.1-1.3-0.4-1.9-0.8c-0.5,1.8-0.9,3.6-1.4,5.4C95.9,192.4,95.8,193,95.8,193.6z"></path><path class="st13" d="M95.8,193.6c0,1.3,0.2,2.7,0.8,3.9c0.2,0.8,0.6,1.5,1.2,2.1c0.2,0.1,0.3,0.2,0.4,0.4c0.2,0.2,0.3,0.4,0.4,0.7
		c0.3,0.6,0.6,1.1,1.1,1.6c0.5,0.8,1.4,1.2,2.3,1.1h0.1c0.1,0,0.1,0,0.1-0.1c0-0.1,0.1-0.1,0.1-0.2c0.1-0.4,0-0.8-0.3-1.1
		c-0.3-0.3-0.5-0.6-0.6-1c-0.2-0.5-0.2-0.9-0.1-1.4c0-0.6,0.1-1.1,0.2-1.7c0.1-0.3,0.1-0.6,0.2-0.9c0.1-0.2,0.2-0.4,0.3-0.5
		s0.2-0.3,0.3-0.2s0.2,0.3,0.2,0.5s0,0.4,0,0.6c0,0.5,0,1,0.1,1.5c0.1,0.8,0.4,1.6,0.9,2.3c0.1,0.1,0.1,0.2,0.2,0.2
		c0.2,0.1,0.5,0,0.7-0.1c0.2-0.2,0.3-0.4,0.3-0.7c0.1-0.7,0.1-1.4,0-2.1c-0.2-1.3-0.3-2.7-0.5-4c-0.2-1.3-0.5-2.6-1-3.8
		c0-0.1-0.1-0.2-0.1-0.3c-0.3-0.6-0.5-1.2-0.8-1.8c-0.2-0.5-0.2-1.1-0.3-1.6c0,0.2-0.8,0.4-0.9,0.4c-0.6,0-1.1-0.1-1.7-0.2
		c-0.7-0.1-1.3-0.4-1.9-0.8c-0.5,1.8-0.9,3.6-1.4,5.4C95.9,192.4,95.8,193,95.8,193.6z"></path><path class="st12" d="M95.8,193.6c0,1.3,0.2,2.7,0.8,3.9c0.2,0.8,0.6,1.5,1.2,2.1c0.2,0.1,0.3,0.2,0.4,0.4c0.2,0.2,0.3,0.4,0.4,0.7
		c0.3,0.6,0.6,1.1,1.1,1.6c0.5,0.8,1.4,1.2,2.3,1.1h0.1c-0.8-0.6-1.4-1.3-2-2.1c-0.4-0.6-0.7-1.3-1-1.9c-0.4-0.9-0.8-1.9-1.1-2.9
		c-0.3-1.4-0.4-2.8-0.1-4.2c0-0.2,0.1-0.3,0.2-0.5c0.2-0.2,0.6-0.2,0.9-0.2c1.5,0.2,3-0.3,4.2-1.3c-0.3-0.6-0.5-1.2-0.8-1.8
		c-0.2-0.5-0.2-1.1-0.3-1.6c0,0.2-0.8,0.4-0.9,0.4c-0.6,0-1.1-0.1-1.7-0.2c-0.7-0.1-1.3-0.4-1.9-0.8c-0.5,1.8-0.9,3.6-1.4,5.4
		C95.9,192.4,95.8,193,95.8,193.6z"></path><path class="st6" d="M106.4,165.9c1.5-7.5,3.5-15,6-22.3c1.1-3.2,2.7-6.3,0.7-9.4c-1-1.6-2.7-3.4-4.5-3.9
		c-5.2-1.6-6.7,7.5-7.7,10.8c-1.8,6.2-3.2,12.5-4,18.9c-0.3,2.4-0.6,4.7-0.7,7.1s-0.2,5.1-0.1,7.6c0.1,2.2,0.5,10.7,0.5,12.8
		c0,0.3,0,0.5,0.1,0.8c0,0.1,0.1,0.2,0.2,0.2c0.1,0.1,0.2,0.3,0.4,0.4c0.7,0.6,1.5,1,2.3,1.2c0.8,0.2,1.7,0.1,2.5-0.3
		c0.2-0.1,0.3-0.2,0.4-0.3c0.3-0.4,0.2-1.1,0.3-1.5c0.2-0.7,0.2-1.5,0.3-2.2c0.2-1.5,0.4-3,0.7-4.5
		C104.6,175.9,105.4,170.9,106.4,165.9z"></path><path class="st1" d="M117.3,96.5c-4.3,2.2-7.7,5.8-9.5,10.3c-1.4,3.8-2.4,7.8-3.1,11.8c-1.4,6.7-2.2,9.6-1.4,16.4
		c0.6,6,5.2,9.8,9.7,9.8c1.8,0.1,3.6-0.1,5.3-0.5c3.4-0.9,5.5-3.9,6.8-7c0.6-1.3,0.9-2.7,0.8-4.1c-0.3-1.3-0.9-2.5-1.9-3.3
		c-2.9-2.7-6.3-3.8-6.5-8.3c-0.1-3.5,0.7-6.9,2.2-10.1c1.3-3.1,4.2-5.2,7.5-5.5c4.8-0.5,7.8-6.3,3.2-9.3
		C126.2,94.1,121.4,94.4,117.3,96.5z"></path><path class="st12" d="M120.8,112.3c-0.1-1.3-0.6-2.6-1.5-3.6c-0.6-0.6-1.6-0.7-2.2-0.1c-0.1,0.1-0.2,0.2-0.3,0.3
		c-1.3,2.3,0.8,4.7,3,5.1c0.4,0,0.7-0.2,0.8-0.6c0-0.1,0-0.3-0.1-0.4C120.8,112.8,120.9,112.6,120.8,112.3z"></path><path class="st11" d="M133.8,164.5c0.5-1.8,1.1-3.6,2-5.2c1-2.1,4.4-4.4,3.9-6.9c-0.7-3-0.3-5.7-1.8-7.6s-3.3-5.1-1.7-5.8
		s1.2,3.2,2.6,2.7s1.3-4,1.3-4s1.7-2.8,2.4,0c0.4,1.4,0.6,2.9,0.7,4.3c0,0,2.4-6.7,3.9-4.3c0.9,1.5,0.9,3.5,0,5c0,0,2.5-3.9,2.9-1.1
		s-1.2,8.9-1.2,8.9s-3.3,4.1,1.8,7.3c8.6,5.5,12.9,14.9,10.4,25.1s-16,13.4-24,7c-6.3-5.1-4.8-15.1-3.7-22.1
		C133.3,166.7,133.5,165.6,133.8,164.5z"></path><path class="st12" d="M149.7,147.8l-0.8,1.3c0.5,0.2,0.8,0.6,0.9,1.2c0.1,0.5,0,1.1-0.4,1.4c-0.1,0-0.1,0.1-0.1,0.2
		c0,0.1,0.1,0.1,0.1,0.2c0.2,0.2,0.3,0.6,0.3,0.9c-0.1,0.3-0.2,0.6-0.3,0.9c0,0.1,0,0.1,0,0.2c0,0.1,0,0.2,0.1,0.2
		c0.2,0.4,0.3,0.9,0.1,1.4c-0.1,0.4-0.5,0.8-0.9,1c-0.3,0.1-0.7,0.2-1.1,0.2l-1.8,0.1c-0.4,0-0.7,0-1.1-0.2c-0.1,0-0.2-0.1-0.2-0.2
		c0-0.1,0-0.2,0-0.3c0-0.4,0.2-0.7,0.4-1c-0.4,0.1-0.7-0.1-0.8-0.5c-0.1-0.3,0-0.7,0.2-1c0.2-0.3,0.4-0.5,0.7-0.7
		c-0.3-0.1-0.4-0.4-0.3-0.7c0.2-0.6,0.6-1.2,1.2-1.4c0.6-0.2,1.2-0.5,1.7-0.9c-0.4-0.1-0.8-0.3-0.9-0.8c0-0.2,0-0.4,0.1-0.6
		c0.2-0.9,0.8-1.7,1.5-2.2c0.4-0.2,0.8-0.2,1.2,0C150,146.7,150,147.3,149.7,147.8z"></path><path class="st12" d="M140.6,151.4c-0.2,0.1-0.4,0.3-0.6,0.4c-0.2,0.1-0.3,0.3-0.4,0.6c0,0.1,0,0.1,0,0.2c0,0.1-0.1,0.1-0.1,0.1
		c0,0,0,0-0.1,0c-0.2-0.2-0.3-0.4-0.4-0.6c-0.3-0.6-0.4-1.3-0.4-2c0-0.2,0.1-0.5,0.3-0.6c0.5-0.2,1-0.3,1.5-0.2
		c0.5,0.1,0.9,0.3,0.8,0.9C141.2,150.6,141,151,140.6,151.4z"></path></g></svg>