<svg transform="scale(1)" version="1.1" id="Q901LPwLFL" xmlns="http://www.w3.org/2000/svg" xmlns:xlink="http://www.w3.org/1999/xlink" x="0px" y="0px" viewBox="0 0 500 500" xml:space="preserve" class="pbimage_pbimage__wrapper__image__0LEis false"><title>Recycling 2</title><style type="text/css"> .st0{fill:#EFDDD8;} .st1{opacity:0.32;fill:url(#SVGID_1_-Q901LPwLFL);enable-background:new;} .st2{fill:#C7008B;} .st3{opacity:0.5;fill:#2A343D;enable-background:new;} .st4{fill:#FE6162;} .st5{fill:#DB7D58;} .st6{opacity:0.3;fill:#2A343D;enable-background:new;} .st7{fill:#FDEDCB;} .st8{fill:#00CA9A;} .st9{fill:#2A343D;} .st10{fill:#68E1FD;} .st11{opacity:0.17;fill:#FFFFFF;enable-background:new;} .st12{opacity:0.36;fill:#2A343D;enable-background:new;} .st13{opacity:8.000000e-02;} .st14{opacity:0.37;fill:#2A343D;enable-background:new;} .st15{opacity:8.000000e-02;fill:#2A343D;enable-background:new;} .st16{opacity:0.5;fill:#FFFFFF;enable-background:new;} .st17{fill:#FFFFFF;} .st18{fill:#FEFEFE;}
 .st18{fill:#FEFEFE;}
 .st17{fill:#FFFFFF;}
 .st16{fill:#FFFFFF;}
 .st15{fill:#2A343D;}
 .st14{fill:#2A343D;}
 .st12{fill:#2A343D;}
 .st11{fill:#FFFFFF;}
 .st10{fill:#68E1FD;}
 .st9{fill:#2A343D;}
 .st8{fill:#00CA9A;}
 .st7{fill:#FDEDCB;}
 .st6{fill:#2A343D;}
 .st5{fill:#DB7D58;}
 .st4{fill:#FE6162;}
 .st3{fill:#2A343D;}
 .st2{fill:#C7008B;}
 .st0{fill:#EFDDD8;}</style><path class="st0" id="field" d="M478.1,272.2L229,414.8c-10,5.7-22.2,5.7-32.1,0l-175-100.2c-4.9-2.8-6.7-9.2-3.8-14.1
	c0.9-1.6,2.2-2.9,3.7-3.8l260.3-152.6c3.2-1.9,7.3-1.9,10.5,0l185.6,110.3c4.9,2.9,6.5,9.2,3.6,14.1
	C480.9,270.1,479.6,271.3,478.1,272.2z"></path><g id="plant"><linearGradient id="SVGID_1_-Q901LPwLFL" gradientUnits="userSpaceOnUse" x1="52.7628" y1="188.998" x2="62.9928" y2="203.548" gradientTransform="matrix(1 0 0 -1 0 502)"><stop offset="0" style="stop-color: rgb(42, 52, 61); stop-opacity: 0;"></stop><stop offset="0.99" style="stop-color: rgb(42, 52, 61);"></stop></linearGradient><polyline class="st1" points="91.5,302.5 57.2,322.4 28.2,303.3 55.3,286.8 	"></polyline><path class="st2" d="M89.2,264c-1.1-2.3-5.8-4-11.4-4c-5.8,0-10.6,1.8-11.5,4.2c-6.7,9.3-13.2,24.5-5,34.6c3.9,4.9,10,7.2,16.1,7.3
		h1c6-0.1,12.2-2.4,16.1-7.3C102.6,288.5,95.9,273.2,89.2,264z" fill="#C7008B"></path><ellipse class="st3" cx="77.8" cy="264.9" rx="11.7" ry="5" fill="#2A343D"></ellipse><path class="st4" d="M91.4,222.5c-7.2,12.2-11.7,25.9-13,40c0-17.1-1.6-34.1-4.7-50.9c-0.1-0.6-1-0.3-0.9,0.2
		c3.5,18.8,5,37.9,4.6,57c0,0.2,0.2,0.5,0.4,0.5c0.1,0,0.1,0,0.2,0c0,0.1,0,0.3,0,0.4c0,0.3,0.2,0.5,0.5,0.5s0.5-0.2,0.5-0.5
		c0.3-16.4,4.9-32.5,13.3-46.6c0.1-0.2,0.1-0.5-0.1-0.7C91.8,222.2,91.5,222.2,91.4,222.5z" fill="#FE6162"></path><path class="st4" d="M84,238c0,0,7.2-23.2,22.7-31.8c0,0-3.1,4.6-1.7,8.4s3.8,10.5-3.6,14.2s-11.5,0-10.9,7.3s3.5,10.9-1.2,14.5
		s-8.7,6.7-10.3,14.3C79.2,264.9,80.9,245.7,84,238z" fill="#FE6162"></path><path class="st4" d="M77.1,235.6c0,0-3-35.7-9.3-44.7c0.5,3.4-0.1,6.9-1.8,10c-2.7,5.2-5.6,7-4.1,13.7s8,5.5,7.3,12.2
		s-5.9,5.4-3.3,13.9s11.7,14.1,11.7,14.1" fill="#FE6162"></path></g><g id="box"><path class="st5" d="M426.2,284v-39.7l35.5-19.9v39.4L426.2,284z"></path><path class="st3" d="M426.2,284v-39.7l35.5-19.9v39.4L426.2,284z"></path><path class="st5" d="M426.2,244.3l-34.6-19.9c0,0-1,40,0,40.7s34.6,18.9,34.6,18.9V244.3z"></path><path class="st6" d="M426.2,244.3l-34.6-19.9c0,0-1,40,0,40.7s34.6,18.9,34.6,18.9V244.3z"></path><polygon class="st5" points="391.6,224.5 426.2,203.3 461.7,224.5 426.2,244.3 	"></polygon><polygon class="st7" points="404.8,216.4 440.8,236.2 440.8,256.9 451.1,251.7 451.1,230.4 415.1,210.1 	"></polygon></g><g id="bin"><path class="st4" d="M308.5,223c0,0-2.1,22.4,2.1,31.5s35.6,25.3,35.6,25.3s5.2-8.7,4.4-12.2s-23.8-23.8-23.8-23.8V220"></path><path class="st4" d="M331.3,220c0.5,7.2,0,14.4-1.5,21.4c-1.4,6.7-3.3,13.2-5.8,19.5l13.3,37.5c0,0-6.6,5.5-10.8,5.5
		s-15.9-31.8-19.2-37.7S315,220,315,220"></path><polyline class="st8" points="306.9,184.3 265.9,197.4 269,209 309.9,196.7 	"></polyline><path class="st8" d="M328.4,189.9c-0.4-2.2-1.8-4-3.8-4.9c-1.8-0.9-3.7-1.5-5.7-1.7c-4,0-8,0.4-12,1c-5,5.1-2.9,16.4-2,22.3
		c0.9,5.5,2.2,10.9,3.5,16.3c6.4,3.5,18.2-0.1,22.8-1.9C331.4,210.7,330.4,200.2,328.4,189.9z"></path><path class="st9" d="M324.7,170.7c-0.9-1.5-2.7-2.1-4.3-1.5c0-0.1-0.1-0.1-0.1-0.2c-0.8-1.1-1.2-2.2-2.6-2.8
		c-1.3-0.4-2.7-0.5-4-0.2c-1.3,0.2-2.4,0.9-3.2,1.9c-0.1-0.1-0.2-0.1-0.4-0.1c-2.9-0.2-5.5,2.1-5.7,5c-0.1,2.4,1.5,5.3,4,5.8
		c1.2,0.5,2.4,0.8,3.7,0.9c0.8,0,1.5-0.7,1.5-1.5c0-0.3-0.1-0.6-0.2-0.8l0.2-0.1l0.1,0.1c0.4,0.5,1.1,0.7,1.7,0.4l0.2-0.1
		c0.3,0,0.6-0.1,0.9-0.2c0.1,0.1,0.2,0.1,0.3,0.1l-0.1,0.4c-0.2,0.6,0,1.3,0.5,1.7c0.3,0.1,0.5,0.2,0.8,0.3
		c-0.8,0.9-1.7,1.6-2.8,2.1c-1.4,0.6-0.8,2.5,0.4,2.7c-0.6,0.4-0.7,3.2,0.1,2.9c3.8-1.6,6.7-4.8,8-8.7
		C324.6,176.6,325.8,172.4,324.7,170.7z"></path><path class="st7" d="M307.8,174.8c-0.4-0.1-1.5,11.8,3.3,13c6,1.6,9-5.5,9-5.5s1.4-5.3-2.2-7.5S312.1,176,307.8,174.8z"></path><path class="st9" d="M307.8,174.8c0,0,4.7,1.4,7.4,0.7s-1.8,7.3,0.1,7.5s2.2-4.3,3.5-2.5s-2.9,6.7-2.9,6.7s5.5-2.1,7.1-6.5
		s-3.7-9.2-9.2-9.3S307.8,174.8,307.8,174.8z"></path><path class="st9" d="M335.1,292.2c0,0-6.6,6.7-14.6,3.5c0,0,4,10.3,3.5,13.9s-6.3,8-8,9.1s-1.1,3,0,4.9s11-1.6,13.4-2.5
		s5-6.1,5.7-5s0,3.1,0,3.1s5.8-0.8,6.9-3.1S335.1,292.2,335.1,292.2z"></path><path class="st10" d="M148.9,216.8v98.7c0,5.8,3.1,11.2,8.1,14.1l49.3,28.9c5.5,3.2,12.4,3.2,17.8-0.1l54.1-31.5V211"></path><path class="st11" d="M208.1,214.1v145.3c-0.6-0.3-1.3-0.6-1.9-0.9L157,329.6c-5-2.9-8.1-8.3-8.1-14.1v-98.7L208.1,214.1z"></path><path class="st12" d="M278.2,215.7v9.8L217.9,258c-4.8,3-10.9,3-15.7,0c-8.6-5.1-53.3-32.5-53.3-32.5v-8.6"></path><path class="st10" d="M283.6,212.7l-67.9,38c-4.1,2.3-9,2.2-13-0.2l-59.2-35.5c-4.2-2.5-5.6-7.9-3-12.1c0.8-1.3,1.9-2.4,3.2-3.1
		l59.3-33.7c5-2.9,11.2-2.8,16.2,0.1l64.5,38.2c2.3,1.4,3,4.3,1.7,6.6C285,211.7,284.4,212.3,283.6,212.7z"></path><polygon class="st10" points="286.1,208.1 286.1,199.8 282.1,204.9 	"></polygon><polygon class="st10" points="139.2,198.8 139.2,207.6 142.7,204.7 	"></polygon><g class="st13"><path class="st9" d="M283.6,212.7l-67.9,38c-4.1,2.3-9,2.2-13-0.2l-59.2-35.5c-4.2-2.5-5.6-7.9-3-12.1c0.8-1.3,1.9-2.4,3.2-3.1
			l59.3-33.7c5-2.9,11.2-2.8,16.2,0.1l64.5,38.2c2.3,1.4,3,4.3,1.7,6.6C285,211.7,284.4,212.3,283.6,212.7z"></path><polygon class="st9" points="286.1,208.1 286.1,199.8 282.1,204.9 		"></polygon><polygon class="st9" points="139.2,198.8 139.2,207.6 142.7,204.7 		"></polygon></g><path class="st10" d="M283.6,204l-67.9,38c-4.1,2.3-9,2.2-13-0.2l-59.2-35.5c-4.2-2.5-5.6-7.9-3-12.1c0.8-1.3,1.9-2.4,3.2-3.2
		l59.4-33.6c5-2.9,11.2-2.8,16.2,0.1l64.5,38.2c2.3,1.4,3,4.3,1.7,6.6C285,203,284.4,203.6,283.6,204z"></path><path class="st14" d="M271.1,202.2l-55.9,31.3c-3.3,1.9-7.4,1.8-10.7-0.2l-48.7-29.3c-3.4-2.1-4.6-6.5-2.5-10
		c0.6-1.1,1.6-2,2.7-2.6l48.8-27.7c4.1-2.3,9.2-2.3,13.3,0.1l53.1,31.4c1.9,1.1,2.5,3.5,1.4,5.4
		C272.2,201.4,271.7,201.9,271.1,202.2z"></path><path class="st10" d="M283.7,195.7l17.9-74.2c1-4.2-1-8.5-4.8-10.6L242,81.7c-2.9-1.6-6.6-0.5-8.2,2.5c-0.2,0.4-0.4,0.9-0.5,1.4
		L216,156L283.7,195.7z"></path><path class="st15" d="M283.7,195.7l17.9-74.2c1-4.2-1-8.5-4.8-10.6L242,81.7c-2.9-1.6-6.6-0.5-8.2,2.5c-0.2,0.4-0.4,0.9-0.5,1.4
		L216,156L283.7,195.7z"></path><path class="st14" d="M210.7,162.1c2.6-0.1,5.1,0.5,7.4,1.8l53.1,31.4c1.9,1.1,2.5,3.5,1.4,5.4c-0.4,0.6-0.9,1.1-1.5,1.4
		l-55.9,31.3c-1.4,0.8-2.9,1.2-4.5,1.3V162.1z"></path><ellipse class="st9" transform="matrix(0.3843 -0.9232 0.9232 0.3843 -132.2058 455.3493)" cx="275.3" cy="326.8" rx="15.9" ry="12.5"></ellipse><polyline class="st9" points="287.6,314.6 280.2,311.7 279.8,316 	"></polyline><polygon class="st9" points="275.4,343.9 269.2,341.5 273.9,340.7 	"></polygon><ellipse class="st9" transform="matrix(0.3843 -0.9232 0.9232 0.3843 -130.8476 462.2935)" cx="281.2" cy="329.2" rx="15.9" ry="12.5"></ellipse><ellipse class="st16" transform="matrix(0.3843 -0.9232 0.9232 0.3843 -130.8476 462.2935)" cx="281.2" cy="329.2" rx="15.9" ry="12.5"></ellipse><ellipse class="st17" transform="matrix(0.3843 -0.9232 0.9232 0.3843 -130.3111 462.1736)" cx="281.3" cy="328.8" rx="11.6" ry="9.1"></ellipse><path class="st8" d="M186.1,221.9l-4.9-22.6c-0.8-3.5,4.7-4.7,5.5-1.2l4.9,22.6c0.3,1.5-0.6,2.9-2,3.2c-0.2,0-0.4,0.1-0.6,0.1
		l15.5,9.3c3.3,2,7.4,2,10.7,0.2l0.1-0.1l0,0c0-1.4,0-2.8-0.1-4.2c0-0.6,0-1.2,0-1.8c-0.2-1.2-0.5-2.4-0.7-3.6
		c-1.9-9.5-3.9-19-6.4-28.4c-1.1-4.3-0.9-4.5-2.8-8.5c-0.7-1.6-1.5-3.1-2.4-4.6c-1.6-2.8-8.5-16.7-9.4-19.7
		c-0.8-2.8-1.6-5.7-2.4-8.5c0,0,3.1-2.9-0.3-7.6c0.4,2.1-2.6,4.5-6.7,5.4s-7.9-0.1-8.4-2.1c0,0-1,5.6,3.6,7.5
		c0.6,0.3,0.4,2.9,0.4,3.4c0,6.5-0.5,13-1.4,19.4c-0.8,6.1-2.1,12.3-1.2,18.5c0.7,4.8,1.6,9.6,2.5,14.4c0.4,2.1,0.9,4.2,1.3,6.3
		l5.3,3.2C186.2,222.3,186.1,222.1,186.1,221.9z"></path><path class="st9" d="M182.4,144.3c-4.2,0.9-7.2,3.3-6.7,5.4l15.1-3.2C190.3,144.4,186.6,143.4,182.4,144.3z"></path><path class="st9" d="M184.1,151.8c4.2-0.9,7.2-3.3,6.7-5.4l-15.1,3.2C176.1,151.8,179.9,152.7,184.1,151.8z"></path><path class="st18" d="M191.6,220.8l-4.9-22.6c-0.8-3.5-6.3-2.4-5.5,1.2l4.9,22.6c0,0.2,0.1,0.3,0.2,0.5l2.7,1.6
		c1.5,0,2.7-1.2,2.7-2.7C191.7,221.1,191.6,220.9,191.6,220.8z"></path><path class="st2" d="M235.1,222.4c0.1-5.9,0.1-11.9-0.1-17.9c0.1-1.9-0.1-3.8-0.6-5.6c-0.2-1.1-0.5-2.1-0.9-3.1
		c-0.6-1.9-3-11.3-3.1-13.3c-0.1-1.8-0.3-3.7-0.4-5.5c0,0,2.3-1.4,0.8-4.7c0,1.3-2.2,2.4-4.8,2.4s-4.8-1.1-4.8-2.4
		c0,0-1.4,3.3,1.2,5.1c0.4,0.2-0.1,1.8-0.2,2.1c-0.8,4-2,7.9-3.4,11.7c-1.3,3.6-2.9,7.2-3.1,11.1c-0.2,3-0.3,6.1-0.4,9.1
		c-0.1,5.4-0.1,10.7-0.1,16c0.4,1.8,0.7,3.6,1.1,5.4L235.1,222.4z M220,224.4c-1-0.1-1.7-0.9-1.6-1.9c0.1-0.9,0.8-1.6,1.6-1.6
		c1,0.1,1.7,0.9,1.6,1.9C221.6,223.7,220.9,224.3,220,224.4z M218,203.3c0.1-1,0.9-1.7,1.9-1.6c0.9,0.1,1.6,0.8,1.6,1.6v14.4
		c-0.1,1-0.9,1.7-1.9,1.6c-0.9-0.1-1.6-0.8-1.6-1.6V203.3z"></path><path class="st2" d="M215.3,233.4L215.3,233.4l1-0.6c-0.4-1.8-0.7-3.6-1.1-5.4c0,0.6,0,1.2,0,1.8
		C215.2,230.6,215.3,232,215.3,233.4z"></path><path class="st9" d="M226,169.9c-2.7,0-4.8,1.1-4.8,2.4h9.6C230.9,171,228.7,169.9,226,169.9z"></path><path class="st9" d="M226,174.7c2.7,0,4.8-1.1,4.8-2.4h-9.6C221.2,173.6,223.4,174.7,226,174.7z"></path><path class="st18" d="M221.6,217.8v-14.4c-0.1-1-0.9-1.7-1.9-1.6c-0.9,0.1-1.6,0.8-1.6,1.6v14.4c0.1,1,0.9,1.7,1.9,1.6
		C220.8,219.3,221.5,218.6,221.6,217.8z"></path><path class="st18" d="M220,220.9c-1,0.1-1.7,0.9-1.6,1.9c0.1,0.9,0.8,1.6,1.6,1.6c1-0.1,1.7-0.9,1.6-1.9
		C221.6,221.7,220.9,221,220,220.9z"></path><path class="st17" d="M189,224.1l-2.7-1.6C186.7,223.5,187.8,224.2,189,224.1z"></path><path class="st8" d="M322.5,190.8c0,0,6.9,9,3.2,16.6S287,230.8,287,230.8l-5.7-10.4l36.1-25.7"></path><path class="st7" d="M282.4,222.5c0,0-3,0.8-4.7,0s-3-3.3-4.2-2.1s1.7,4,1.7,4s2.2-0.2,1.3,2.4s-4.1,8.6-3.3,10.2s3.3,1.3,5,0
		s5.1-6.3,5.1-7s1.7-2.4,1.7-2.4L282.4,222.5z"></path><path class="st9" d="M320.9,292.4l-6.8-15.6c-2.1-5-5.8-10.8-5.9-16.3c-0.1-5.1,2.1-10.6,3.5-15.5c1.6-5.6,3.4-11.2,5.1-16.8
		c0.3-0.9-1-1.5-1.3-0.6c-1.6,5.3-3.3,10.6-4.9,15.9s-4.1,11.4-4,17c0.1,5.2,3.2,10.3,5.2,14.9c2.5,5.9,5.1,11.7,7.6,17.6
		C319.9,293.8,321.3,293.3,320.9,292.4z"></path><path class="st9" d="M345.9,262c0,0-1.5,9.3-9.9,11.3c0,0,9.2,6.1,10.9,9.3s-0.5,10.2-1.2,12.1s0.8,3.1,2.8,4s8.1-7.7,9.5-9.8
		s0.5-7.9,1.7-7.4s1.8,2.6,1.8,2.6s4.2-4,3.8-6.5S345.9,262,345.9,262z"></path><path class="st17" d="M179.9,290c0.1,0.8,0.1,1.6,0.1,2.4l0.2,0.1c1.7,0.8,3.3,1.5,5,2.3c0.9,0.4,1.8,0.6,2.8,0.5
		c0.3-0.1,0.7-0.2,1-0.3v0.1c-1.1,1.9-2.2,3.8-3.3,5.7c-0.6,1-1.5,1.1-2.7,0.6l-0.9-0.4l-1.7-0.8l-0.3-0.1c0,0.8,0,1.6,0,2.5
		l-0.2-0.4c-0.9-2.3-1.9-4.7-2.9-7c-0.1-0.2-0.1-0.3,0-0.4l2.8-4.6L179.9,290z"></path><g><path class="st17" d="M168.9,277c0.1,0.1,0.2,0.2,0.3,0.3c1,2.5,2,5,3,7.5c0,0.1,0,0.1,0.1,0.3c-0.6-0.7-1.2-1.3-1.8-1.9
			c-0.2,0.2-0.3,0.5-0.5,0.7c-0.6,0.8-1.1,1.6-1.7,2.5c-0.1,0.1-0.2,0.1-0.4,0.1c-0.9-0.4-1.7-0.9-2.5-1.4c-1.1-0.8-2-2-2.5-3.3
			c-0.3-0.7-0.3-1.5,0-2.2c0.5-0.9,1-1.8,1.5-2.7l0.1-0.2l-1.8-2.4l0.2,0.1L168.9,277L168.9,277z"></path><path class="st17" d="M171.6,268.6l0.2,0.1c1,0.6,1.8,1.5,2.3,2.5c0.7,1.1,1.3,2.3,1.7,3.5c0,0.1,0,0.2,0,0.3l-2.9,4.2l-0.1,0.1
			l-5.9-6.5l0.1-0.2c0.9-1.2,1.8-2.5,2.7-3.7C170.4,268.3,171.1,268.2,171.6,268.6z"></path></g><path class="st17" d="M163.2,283.1c0.7,1.2,1.7,2.1,2.9,2.8c0.4,0.2,0.8,0.4,1.1,0.6l0.9,0.4l6.5,3l0.2,0.1l0.1,7.7l-0.5-0.2
		l-2.7-1.2l-1.4-0.6c-0.9-0.4-1.7-0.9-2.4-1.6c-0.4-0.4-0.8-0.9-1-1.5c-1.2-3.1-2.5-6.1-3.7-9.2L163.2,283.1z"></path><path class="st17" d="M186.8,285c0.3,0.9,0.7,1.7,1,2.6l1.5,4c0.4,0.8,0.3,1.6-0.1,2.4c-0.4,0.5-1,0.8-1.7,0.7c-1,0-2-0.3-2.9-0.7
		l-0.5-0.2c-0.1-0.1-0.2-0.2-0.3-0.3c-0.9-2.3-1.8-4.5-2.8-6.8l-0.1-0.2L186.8,285z"></path><path class="st17" d="M179.9,272c1.3,0.6,2.3,1.8,2.8,3.1c0.5,1.2,1,2.4,1.4,3.6l1.8-0.3v0l-0.2,0.3c-0.9,1.4-1.9,2.8-2.8,4.1
		c-0.1,0.1-0.2,0.1-0.3,0.1l-5.6-2.6l-0.3-0.1c0.6-0.2,1.1-0.3,1.7-0.5l-0.1-0.4c-0.8-2-1.6-4-2.5-6.1c-0.5-1.2-1.2-2.4-2-3.4
		c-0.3-0.3-0.5-0.6-0.8-0.9c-0.1-0.1-0.2-0.2-0.2-0.2v-0.1l2.2,1l1.1,0.5L179.9,272z"></path><path class="st9" d="M328.5,245.2c0,0-3,16.1-3.1,16.8c0.3,2.3,0.8,4.5,1.4,6.7l1.7,0.8l2.8-21.7L328.5,245.2z"></path></g></svg>